<mxfile host="65bd71144e">
    <diagram id="gxXfaDTIgE2G0q-KORul" name="第 1 页">
        <mxGraphModel dx="-455" dy="-437" grid="1" gridSize="10" guides="1" tooltips="1" connect="1" arrows="1" fold="1" page="1" pageScale="1" pageWidth="1169" pageHeight="827" math="0" shadow="0">
            <root>
                <mxCell id="0"/>
                <mxCell id="1" parent="0"/>
                <mxCell id="2" value="&lt;font&gt;ID = 1&lt;br&gt;OP = 2&lt;br&gt;退出;&lt;br&gt;&lt;/font&gt;" style="shape=card;whiteSpace=wrap;html=1;sketch=0;fillStyle=auto;fillColor=none;gradientColor=none;gradientDirection=west;fontColor=#000000;labelBackgroundColor=none;" vertex="1" parent="1">
                    <mxGeometry x="1714" y="1205" width="80" height="70" as="geometry"/>
                </mxCell>
                <mxCell id="3" value="注:&lt;br&gt;退出指令，目的是退出当前数据库，&lt;br&gt;使用该指令后，退出数据库" style="text;html=1;align=center;verticalAlign=middle;resizable=0;points=[];autosize=1;strokeColor=none;fillColor=none;" vertex="1" parent="1">
                    <mxGeometry x="1585" y="1285" width="210" height="50" as="geometry"/>
                </mxCell>
            </root>
        </mxGraphModel>
    </diagram>
</mxfile>